<svg width="200" height="167" viewBox="0 0 200 167" fill="none" xmlns="http://www.w3.org/2000/svg">
<path d="M100.496 160C144.678 160 180.496 124.183 180.496 80C180.496 35.8172 144.678 0 100.496 0C56.3128 0 20.4956 35.8172 20.4956 80C20.4956 124.183 56.3128 160 100.496 160Z" fill="url(#paint0_linear_604_1223)"/>
<g filter="url(#filter0_f_604_1223)">
<ellipse cx="99.6479" cy="130.294" rx="77.1444" ry="14.8822" fill="#6159D6" fill-opacity="0.1"/>
</g>
<path d="M87.7842 81.6676L24 127.023V37.1533L87.7842 81.6676Z" fill="url(#paint1_linear_604_1223)"/>
<path d="M112.561 81.6676L176.345 127.023V37.1533L112.561 81.6676Z" fill="url(#paint2_linear_604_1223)"/>
<path d="M24 127.025L93.6448 77.5095C95.5508 76.1522 97.8325 75.4229 100.172 75.4229C102.512 75.4229 104.794 76.1522 106.7 77.5095L176.339 127.025H24Z" fill="url(#paint3_linear_604_1223)"/>
<path d="M24 36.9998L93.6448 86.5149C95.5508 87.8722 97.8325 88.6016 100.172 88.6016C102.512 88.6016 104.794 87.8722 106.7 86.5149L176.339 36.9998H24Z" fill="url(#paint4_linear_604_1223)"/>
<circle cx="44.9786" cy="142.748" r="2.94568" stroke="#CAC8FA" stroke-width="2.61276"/>
<circle cx="147.636" cy="149.43" r="2.94568" stroke="#CAC8FA" stroke-width="2.61276"/>
<path d="M55.7026 24.8175C56.2175 22.6845 59.2514 22.6845 59.7663 24.8175L60.2696 26.9024C60.4536 27.6646 61.0487 28.2597 61.811 28.4437L63.8958 28.947C66.0288 29.4619 66.0288 32.4958 63.8958 33.0107L61.811 33.514C61.0487 33.698 60.4536 34.2931 60.2696 35.0554L59.7663 37.1402C59.2514 39.2732 56.2175 39.2732 55.7026 37.1402L55.1994 35.0554C55.0154 34.2931 54.4202 33.698 53.658 33.514L51.5731 33.0107C49.4402 32.4958 49.4401 29.4619 51.5731 28.947L53.658 28.4437C54.4202 28.2597 55.0154 27.6646 55.1994 26.9024L55.7026 24.8175Z" fill="#B2AEFE"/>
<path d="M177.417 130.474C177.932 128.341 180.966 128.341 181.481 130.474L181.984 132.559C182.168 133.321 182.763 133.916 183.526 134.1L185.61 134.603C187.743 135.118 187.743 138.152 185.61 138.667L183.526 139.17C182.763 139.354 182.168 139.949 181.984 140.712L181.481 142.796C180.966 144.929 177.932 144.929 177.417 142.796L176.914 140.712C176.73 139.949 176.135 139.354 175.373 139.17L173.288 138.667C171.155 138.152 171.155 135.118 173.288 134.603L175.373 134.1C176.135 133.916 176.73 133.321 176.914 132.559L177.417 130.474Z" fill="#B2AEFE"/>
<path d="M21.8499 116.353C23.1739 116.141 24.2309 117.442 23.7525 118.695L22.1516 122.887C21.6733 124.139 20.0183 124.404 19.1726 123.364L16.3428 119.881C15.4971 118.841 16.0951 117.275 17.4191 117.063L21.8499 116.353Z" fill="#B2AEFE"/>
<path d="M180.67 56.9756C180.338 55.6763 181.538 54.5056 182.829 54.8684L187.149 56.0823C188.439 56.4451 188.854 58.0692 187.894 59.0058L184.683 62.1399C183.723 63.0765 182.11 62.623 181.778 61.3237L180.67 56.9756Z" fill="#B2AEFE"/>
<g filter="url(#filter1_d_604_1223)">
<path d="M189.235 41.8713C188.786 45.2607 187.484 48.4806 185.452 51.2302C183.419 53.9798 180.723 56.1692 177.615 57.5938C174.507 59.0183 171.088 59.6315 167.679 59.376C164.269 59.1206 160.98 58.0047 158.119 56.1329C155.332 54.0294 154.011 52.7652 151.861 49.5855C150.206 46.8155 149.239 43.6895 149.039 40.4689C148.839 37.2484 149.413 34.0267 150.713 31.0733C152.012 28.1199 154 25.5205 156.51 23.4924C159.02 21.4643 161.979 20.0664 165.139 19.4155C168.299 18.7647 171.57 18.8798 174.677 19.7512C177.783 20.6226 180.637 22.225 182.998 24.4246C185.359 26.6241 187.159 29.3568 188.248 32.3942C189.337 35.4317 189.683 38.6857 189.257 41.8843L189.235 41.8713Z" fill="url(#paint5_linear_604_1223)"/>
<path d="M160.633 39.3478L166.204 45L177.633 35.5" stroke="white" stroke-width="4" stroke-linecap="round"/>
</g>
<defs>
<filter id="filter0_f_604_1223" x="0.730423" y="93.6391" width="197.835" height="73.3106" filterUnits="userSpaceOnUse" color-interpolation-filters="sRGB">
<feFlood flood-opacity="0" result="BackgroundImageFix"/>
<feBlend mode="normal" in="SourceGraphic" in2="BackgroundImageFix" result="shape"/>
<feGaussianBlur stdDeviation="10.8865" result="effect1_foregroundBlur_604_1223"/>
</filter>
<filter id="filter1_d_604_1223" x="139" y="13" width="60.4336" height="60.4326" filterUnits="userSpaceOnUse" color-interpolation-filters="sRGB">
<feFlood flood-opacity="0" result="BackgroundImageFix"/>
<feColorMatrix in="SourceAlpha" type="matrix" values="0 0 0 0 0 0 0 0 0 0 0 0 0 0 0 0 0 0 127 0" result="hardAlpha"/>
<feOffset dy="4"/>
<feGaussianBlur stdDeviation="5"/>
<feComposite in2="hardAlpha" operator="out"/>
<feColorMatrix type="matrix" values="0 0 0 0 0.424458 0 0 0 0 0.406667 0 0 0 0 0.7625 0 0 0 0.28 0"/>
<feBlend mode="normal" in2="BackgroundImageFix" result="effect1_dropShadow_604_1223"/>
<feBlend mode="normal" in="SourceGraphic" in2="effect1_dropShadow_604_1223" result="shape"/>
</filter>
<linearGradient id="paint0_linear_604_1223" x1="99.8789" y1="-26.05" x2="101.518" y2="254.898" gradientUnits="userSpaceOnUse">
<stop stop-color="#D8D5FF" stop-opacity="0.19"/>
<stop offset="1" stop-color="#FEFEFF"/>
</linearGradient>
<linearGradient id="paint1_linear_604_1223" x1="55.8921" y1="37.1533" x2="55.8921" y2="127.023" gradientUnits="userSpaceOnUse">
<stop stop-color="#D4D1FF"/>
<stop offset="1" stop-color="#C9C5FF"/>
</linearGradient>
<linearGradient id="paint2_linear_604_1223" x1="144.453" y1="37.1533" x2="144.453" y2="127.023" gradientUnits="userSpaceOnUse">
<stop stop-color="#D4D1FF"/>
<stop offset="1" stop-color="#C9C5FF"/>
</linearGradient>
<linearGradient id="paint3_linear_604_1223" x1="100.169" y1="75.4229" x2="100.169" y2="127.025" gradientUnits="userSpaceOnUse">
<stop stop-color="#E4E1FF"/>
<stop offset="1" stop-color="#CFCBFF"/>
</linearGradient>
<linearGradient id="paint4_linear_604_1223" x1="100.169" y1="88.6016" x2="100.169" y2="36.9998" gradientUnits="userSpaceOnUse">
<stop stop-color="#CAC6FF"/>
<stop offset="1" stop-color="#C7C2FF"/>
</linearGradient>
<linearGradient id="paint5_linear_604_1223" x1="149.016" y1="19.0968" x2="169.51" y2="59.2833" gradientUnits="userSpaceOnUse">
<stop stop-color="#CFF0E4"/>
<stop offset="1" stop-color="#3DBB8E"/>
</linearGradient>
</defs>
</svg>
